P3
25 5
255
0
0
0
255
0
0
86
86
86
255
251
0
255
255
255
178
0
0
0
206
0
255
38
0
0
0
0
160
160
160
0
0
232
0
171
0
215
0
0
73
0
200
111
0
0
62
183
173
48
48
48
214
133
214
181
202
96
255
102
0
255
255
255
238
238
238
238
238
238
255
255
255
137
137
137
246
246
255
255
0
0
160
160
160
255
251
0
16
16
29
255
104
0
95
255
91
255
37
28
68
68
68
86
86
86
0
0
232
123
216
0
255
49
44
150
82
255
128
53
31
79
228
193
64
62
68
214
133
214
181
202
96
255
102
0
255
255
255
51
51
54
15
15
19
160
160
160
80
80
80
0
0
0
255
0
0
73
130
99
209
147
250
160
237
184
237
56
51
255
255
128
0
255
255
0
0
0
128
205
152
0
196
255
0
255
146
255
158
101
173
190
250
179
100
142
0
255
181
48
48
48
214
193
214
181
255
95
239
176
55
255
255
255
211
255
224
182
232
198
255
255
255
163
188
171
0
0
0
255
0
0
96
96
120
242
182
152
219
255
255
255
91
91
153
255
151
255
75
118
48
48
51
136
161
161
242
152
221
192
152
242
251
255
160
132
194
255
142
255
195
255
139
139
151
212
153
164
255
254
201
255
158
255
224
145
255
255
255
214
233
238
214
233
238
255
255
255
197
197
197
0
0
0
235
110
0
220
143
110
255
255
0
186
186
186
169
10
10
67
146
36
255
255
0
0
0
0
114
114
114
139
208
0
74
61
213
55
134
129
154
33
29
207
0
165
238
78
52
212
151
14
45
95
46
190
166
140
35
78
112
255
255
255
153
153
153
198
198
198
54
54
54
18
18
18
# For each row:
# PolyBorder
# ExplodedMine
# OtherMine
# Flag
# Unrevealed
# LoseText
# WinText
# CounterText
# CounterBackground
# 0
# 1
# 2
# 3
# 4
# 5
# 6
# 7
# 8
# 9
# 10
# PolyNumbers
# MainPanelBackground
# TopPanelBackground
# TopButtonBevel
# BottomButtonBevel
