P3
21 4
255
0
0
0
255
0
0
86
86
86
255
251
0
255
255
255
178
0
0
0
206
0
255
38
0
0
0
0
160
160
160
0
0
232
0
171
0
215
0
0
73
0
200
111
0
0
62
183
173
48
48
48
214
133
214
181
202
96
255
102
0
255
255
255
246
246
255
255
0
0
160
160
160
255
251
0
16
16
29
255
104
0
95
255
91
255
37
28
66
66
66
86
86
86
0
0
232
123
216
0
255
49
44
150
82
255
128
53
31
79
228
193
64
62
68
214
133
214
181
202
96
255
102
0
255
255
255
0
0
0
255
0
0
77
134
103
208
170
255
160
237
184
237
56
51
255
255
128
0
255
255
0
0
0
128
205
152
0
196
255
0
255
146
255
158
101
173
185
255
179
100
142
0
255
181
48
48
48
214
193
214
181
255
95
239
176
55
255
255
255
181
202
95
239
101
55
255
255
255
0
0
0
237
56
51
86
86
86
254
248
81
255
255
255
179
40
36
97
207
53
237
56
51
0
0
0
160
160
160
25
65
233
79
172
42
215
50
45
76
57
201
111
21
18
79
183
173
48
48
48
214
133
214
# For each row:
# Border
# ExplodedMine
# OtherMine
# Flag
# Unrevealed
# LoseText
# WinText
# CounterText
# CounterBackground
# 0
# 1
# 2
# 3
# 4
# 5
# 6
# 7
# 8
# 9
# 10
# Numbers